<svg width="24" height="24" viewBox="0 0 24 24" fill="none" xmlns="http://www.w3.org/2000/svg">
<path fill-rule="evenodd" clip-rule="evenodd" d="M2 1.5C2 1.22386 2.22386 1 2.5 1H21.5C21.7761 1 22 1.22386 22 1.5V22.5C22 22.7761 21.7761 23 21.5 23H2.5C2.22386 23 2 22.7761 2 22.5V1.5ZM5.33333 4.4375H18.6667V9.9375H5.33333V4.4375ZM9.33333 12.6875H5.33333V15.4375H9.33333V12.6875ZM5.33333 16.8125H9.33333V19.5625H5.33333V16.8125ZM14.6667 12.6875H10.6667V15.4375H14.6667V12.6875ZM16 12.6875H18.6667V19.5625H16V12.6875ZM14.6667 16.8125H10.6667V19.5625H14.6667V16.8125Z" fill="#13BC9E"/>
</svg>
